/* XPM */
static char *_x20_png[] = {
/* columns rows colors chars-per-pixel */
"19 27 2 1 ",
"  c #0063D9",
". c #0877ED",
/* pixels */
"   .   .   .   .   ",
"   .   .   .   .   ",
"   .   .   .   .   ",
"...................",
"   .   .   .   .   ",
"   .   .   .   .   ",
"   .   .   .   .   ",
"...................",
"   .   .   .   .   ",
"   .   .   .   .   ",
"   .   .   .   .   ",
"...................",
"   .   .   .   .   ",
"   .   .   .   .   ",
"   .   .   .   .   ",
"...................",
"   .   .   .   .   ",
"   .   .   .   .   ",
"   .   .   .   .   ",
"...................",
"   .   .   .   .   ",
"   .   .   .   .   ",
"   .   .   .   .   ",
"...................",
"   .   .   .   .   ",
"   .   .   .   .   ",
"   .   .   .   .   "
};
