/* XPM */
static char *_xFF_png[] = {
/* columns rows colors chars-per-pixel */
"19 27 2 1 ",
"  c #17D8F7",
". c #0877ED",
/* pixels */
"   .   .   .   .   ",
"   .   .   .   .   ",
"   .   .   .   .   ",
"...................",
"   .   .   .   .   ",
"   .   .   .   .   ",
"   .   .   .   .   ",
"...................",
"   .   .   .   .   ",
"   .   .   .   .   ",
"   .   .   .   .   ",
"...................",
"   .   .   .   .   ",
"   .   .   .   .   ",
"   .   .   .   .   ",
"...................",
"   .   .   .   .   ",
"   .   .   .   .   ",
"   .   .   .   .   ",
"...................",
"   .   .   .   .   ",
"   .   .   .   .   ",
"   .   .   .   .   ",
"...................",
"   .   .   .   .   ",
"   .   .   .   .   ",
"   .   .   .   .   "
};
